<svg width="29" height="29" viewBox="0 0 29 29" fill="none" xmlns="http://www.w3.org/2000/svg">
<path d="M6.04167 22.9583H7.76354L19.575 11.1469L17.8531 9.425L6.04167 21.2365V22.9583ZM3.625 25.375V20.2396L19.575 4.31979C19.8167 4.09826 20.0835 3.92708 20.3755 3.80625C20.6675 3.68542 20.9747 3.625 21.2969 3.625C21.6191 3.625 21.9313 3.68542 22.2333 3.80625C22.5354 3.92708 22.7972 4.10833 23.0188 4.35L24.6802 6.04167C24.9219 6.26319 25.0981 6.525 25.2089 6.82708C25.3196 7.12917 25.375 7.43125 25.375 7.73333C25.375 8.05556 25.3196 8.36267 25.2089 8.65469C25.0981 8.9467 24.9219 9.21354 24.6802 9.45521L8.76042 25.375H3.625ZM18.699 10.301L17.8531 9.425L19.575 11.1469L18.699 10.301Z" fill="#787878"/>
</svg>
