<svg width="41" height="41" viewBox="0 0 41 41" fill="none" xmlns="http://www.w3.org/2000/svg">
<path d="M36.7222 22.7778C36.7222 27.6106 34.8024 32.2455 31.385 35.6628C27.9677 39.0802 23.3328 41 18.5 41C13.6672 41 9.03227 39.0802 5.61494 35.6628C2.19761 32.2455 0.277771 27.6106 0.277771 22.7778C0.277771 22.1737 0.51775 21.5943 0.944917 21.1672C1.37208 20.74 1.95144 20.5 2.55555 20.5C3.15965 20.5 3.73901 20.74 4.16618 21.1672C4.59335 21.5943 4.83333 22.1737 4.83333 22.7778C4.83371 25.4322 5.60707 28.029 7.05896 30.2511C8.51084 32.4733 10.5784 34.2245 13.0091 35.2909C15.4399 36.3574 18.1286 36.6929 20.7468 36.2565C23.3651 35.8201 25.7996 34.6307 27.7531 32.8335C29.7065 31.0364 31.0944 28.7092 31.7471 26.1363C32.3997 23.5634 32.2891 20.8561 31.4285 18.3451C30.568 15.8341 28.9948 13.628 26.9012 11.9963C24.8075 10.3646 22.284 9.37787 19.6389 9.15667V12.5278C19.6433 12.7362 19.5877 12.9416 19.4787 13.1193C19.3696 13.297 19.2117 13.4396 19.0239 13.53C18.864 13.6201 18.6835 13.6672 18.5 13.6667C18.2643 13.6656 18.0343 13.5942 17.8394 13.4617L9.86722 7.76723C9.71907 7.6607 9.59839 7.52045 9.51515 7.35806C9.43191 7.19568 9.3885 7.01582 9.3885 6.83334C9.3885 6.65087 9.43191 6.47101 9.51515 6.30862C9.59839 6.14624 9.71907 6.00599 9.86722 5.89945L17.8394 0.205008C18.0103 0.0829126 18.2122 0.0116959 18.4218 -0.000397428C18.6314 -0.0124908 18.8402 0.0350338 19.0239 0.136674C19.2117 0.227108 19.3696 0.369688 19.4787 0.547398C19.5877 0.725109 19.6433 0.930443 19.6389 1.1389V4.60112C24.2663 4.8838 28.6112 6.92243 31.7862 10.3006C34.9613 13.6788 36.7268 18.1417 36.7222 22.7778Z" fill="white"/>
<path d="M24.6728 19.8395L20.7778 23.7345V29.6111C20.7778 30.2152 20.5378 30.7946 20.1106 31.2218C19.6834 31.6489 19.1041 31.8889 18.5 31.8889C17.8959 31.8889 17.3165 31.6489 16.8894 31.2218C16.4622 30.7946 16.2222 30.2152 16.2222 29.6111V22.7778C16.2172 22.584 16.2481 22.3909 16.3133 22.2083C16.3223 22.0971 16.3532 21.9887 16.4044 21.8895C16.5148 21.6176 16.6773 21.37 16.8828 21.1606L21.4383 16.605C21.8672 16.1761 22.449 15.9351 23.0555 15.9351C23.6621 15.9351 24.2438 16.1761 24.6728 16.605C25.1017 17.0339 25.3426 17.6157 25.3426 18.2222C25.3426 18.8288 25.1017 19.4105 24.6728 19.8395Z" fill="white"/>
</svg>
