<svg width="127" height="85" viewBox="0 0 127 85" fill="none" xmlns="http://www.w3.org/2000/svg">
<path d="M80 42V38C80 35.8783 79.1571 33.8434 77.6569 32.3431C76.1566 30.8429 74.1217 30 72 30H56C53.8783 30 51.8434 30.8429 50.3431 32.3431C48.8429 33.8434 48 35.8783 48 38V42M72 14C72 18.4183 68.4183 22 64 22C59.5817 22 56 18.4183 56 14C56 9.58172 59.5817 6 64 6C68.4183 6 72 9.58172 72 14Z" stroke="white" stroke-width="4" stroke-linecap="round" stroke-linejoin="round"/>
<path d="M10.896 63.336C10.896 62.504 10.648 61.856 10.152 61.392C9.672 60.928 8.984 60.696 8.088 60.696H3.168V58.2H8.304C9.952 58.2 11.248 58.664 12.192 59.592C13.152 60.52 13.632 61.768 13.632 63.336H10.896ZM1.752 75V58.2H4.44V75H1.752ZM3.168 68.448V65.952H8.088C8.984 65.952 9.672 65.72 10.152 65.256C10.648 64.792 10.896 64.152 10.896 63.336H13.632C13.632 64.888 13.152 66.128 12.192 67.056C11.248 67.984 9.952 68.448 8.304 68.448H3.168ZM19.1544 75.36C18.3224 75.36 17.5784 75.2 16.9224 74.88C16.2824 74.56 15.7784 74.112 15.4104 73.536C15.0424 72.96 14.8584 72.304 14.8584 71.568C14.8584 70.432 15.2504 69.528 16.0344 68.856C16.8184 68.168 17.9464 67.768 19.4184 67.656L24.1224 67.272V69.552L19.8264 69.912C19.0584 69.976 18.5064 70.136 18.1704 70.392C17.8344 70.648 17.6664 70.992 17.6664 71.424C17.6664 71.856 17.8584 72.208 18.2424 72.48C18.6264 72.752 19.1144 72.888 19.7064 72.888C20.3304 72.888 20.8904 72.736 21.3864 72.432C21.8984 72.112 22.3064 71.704 22.6104 71.208C22.9144 70.712 23.0664 70.176 23.0664 69.6V67.608C23.0664 66.84 22.8104 66.208 22.2984 65.712C21.7864 65.2 21.1144 64.944 20.2824 64.944C19.5784 64.944 18.9944 65.12 18.5304 65.472C18.0824 65.808 17.7944 66.232 17.6664 66.744H17.4024L15.0504 66.168C15.3384 65.08 15.9384 64.2 16.8504 63.528C17.7784 62.856 18.9304 62.52 20.3064 62.52C22.0184 62.52 23.3544 63.016 24.3144 64.008C25.2744 64.984 25.7544 66.368 25.7544 68.16V75H23.3064V71.472L24.2904 71.616C24.0984 72.304 23.7544 72.936 23.2584 73.512C22.7624 74.072 22.1624 74.52 21.4584 74.856C20.7704 75.192 20.0024 75.36 19.1544 75.36ZM32.8003 75C31.6163 75 30.6723 74.632 29.9683 73.896C29.2643 73.144 28.9123 72.136 28.9123 70.872V59.736H31.6723V70.584C31.6723 71.224 31.8323 71.704 32.1523 72.024C32.4883 72.344 32.9683 72.504 33.5923 72.504H34.8403L34.9603 72.768V75H32.8003ZM26.8483 65.352V62.88H34.9603V65.352H26.8483ZM37.4886 75V62.88H40.2486V75H37.4886ZM38.8806 61.056C38.4006 61.056 37.9926 60.888 37.6566 60.552C37.3206 60.216 37.1526 59.8 37.1526 59.304C37.1526 58.84 37.3206 58.44 37.6566 58.104C37.9926 57.752 38.4086 57.576 38.9046 57.576C39.3686 57.576 39.7686 57.752 40.1046 58.104C40.4566 58.44 40.6326 58.848 40.6326 59.328C40.6326 59.808 40.4566 60.216 40.1046 60.552C39.7686 60.888 39.3606 61.056 38.8806 61.056ZM48.9171 75.36C47.6851 75.36 46.5971 75.088 45.6531 74.544C44.7251 74 43.9971 73.248 43.4691 72.288C42.9411 71.328 42.6771 70.208 42.6771 68.928C42.6771 67.664 42.9331 66.552 43.4451 65.592C43.9731 64.616 44.6931 63.864 45.6051 63.336C46.5331 62.792 47.5971 62.52 48.7971 62.52C49.9971 62.52 51.0371 62.8 51.9171 63.36C52.8131 63.904 53.5091 64.672 54.0051 65.664C54.5171 66.656 54.7731 67.816 54.7731 69.144V69.6L54.4131 69.96H43.9731V67.656H53.5251L52.0611 68.208C52.0451 67.536 51.8851 66.96 51.5811 66.48C51.2931 65.984 50.9091 65.608 50.4291 65.352C49.9651 65.08 49.4371 64.944 48.8451 64.944C48.2051 64.944 47.6211 65.096 47.0931 65.4C46.5651 65.688 46.1571 66.096 45.8691 66.624C45.5811 67.136 45.4371 67.736 45.4371 68.424V69.384C45.4371 70.04 45.5891 70.64 45.8931 71.184C46.2131 71.712 46.6371 72.136 47.1651 72.456C47.6931 72.776 48.2771 72.936 48.9171 72.936C49.5251 72.936 50.0771 72.776 50.5731 72.456C51.0851 72.12 51.4851 71.672 51.7731 71.112H52.0611L54.2931 72.072C53.8131 73.112 53.1011 73.92 52.1571 74.496C51.2291 75.072 50.1491 75.36 48.9171 75.36ZM57.1526 75V62.88H59.7446V65.976L59.0486 65.928C59.3046 65.224 59.6726 64.624 60.1526 64.128C60.6326 63.616 61.1926 63.224 61.8326 62.952C62.4726 62.664 63.1686 62.52 63.9206 62.52C64.7846 62.52 65.5606 62.712 66.2486 63.096C66.9526 63.464 67.5046 64.016 67.9046 64.752C68.3206 65.472 68.5286 66.376 68.5286 67.464V75H65.7686V68.304C65.7686 67.536 65.6646 66.912 65.4566 66.432C65.2486 65.952 64.9446 65.6 64.5446 65.376C64.1606 65.152 63.7126 65.04 63.2006 65.04C62.7206 65.04 62.2246 65.16 61.7126 65.4C61.2166 65.64 60.7926 66.04 60.4406 66.6C60.0886 67.16 59.9126 67.92 59.9126 68.88V75H57.1526ZM75.5738 75C74.3898 75 73.4458 74.632 72.7418 73.896C72.0378 73.144 71.6858 72.136 71.6858 70.872V59.736H74.4458V70.584C74.4458 71.224 74.6058 71.704 74.9258 72.024C75.2618 72.344 75.7418 72.504 76.3658 72.504H77.6138L77.7338 72.768V75H75.5738ZM69.6218 65.352V62.88H77.7338V65.352H69.6218ZM86.0276 75V62.88H88.7876V75H86.0276ZM87.4196 61.056C86.9396 61.056 86.5316 60.888 86.1956 60.552C85.8596 60.216 85.6916 59.8 85.6916 59.304C85.6916 58.84 85.8596 58.44 86.1956 58.104C86.5316 57.752 86.9476 57.576 87.4436 57.576C87.9076 57.576 88.3076 57.752 88.6436 58.104C88.9956 58.44 89.1716 58.848 89.1716 59.328C89.1716 59.808 88.9956 60.216 88.6436 60.552C88.3076 60.888 87.8996 61.056 87.4196 61.056ZM91.8401 75V62.88H94.4321V65.976L93.7361 65.928C93.9921 65.224 94.3601 64.624 94.8401 64.128C95.3201 63.616 95.8801 63.224 96.5201 62.952C97.1601 62.664 97.8561 62.52 98.6081 62.52C99.4721 62.52 100.248 62.712 100.936 63.096C101.64 63.464 102.192 64.016 102.592 64.752C103.008 65.472 103.216 66.376 103.216 67.464V75H100.456V68.304C100.456 67.536 100.352 66.912 100.144 66.432C99.9361 65.952 99.6321 65.6 99.2321 65.376C98.8481 65.152 98.4001 65.04 97.8881 65.04C97.4081 65.04 96.9121 65.16 96.4001 65.4C95.9041 65.64 95.4801 66.04 95.1281 66.6C94.7761 67.16 94.6001 67.92 94.6001 68.88V75H91.8401ZM107.217 75V61.848C107.217 60.584 107.569 59.584 108.273 58.848C108.977 58.096 109.921 57.72 111.105 57.72H112.665V59.952L112.545 60.216H111.753C111.129 60.216 110.673 60.352 110.385 60.624C110.113 60.896 109.977 61.352 109.977 61.992V75H107.217ZM105.153 65.352V62.88H112.665V65.352H105.153ZM119.603 75.36C118.387 75.36 117.315 75.088 116.387 74.544C115.459 74 114.731 73.248 114.203 72.288C113.675 71.312 113.411 70.192 113.411 68.928C113.411 67.68 113.675 66.576 114.203 65.616C114.731 64.64 115.459 63.88 116.387 63.336C117.315 62.792 118.387 62.52 119.603 62.52C120.835 62.52 121.915 62.792 122.843 63.336C123.771 63.88 124.499 64.64 125.027 65.616C125.555 66.576 125.819 67.68 125.819 68.928C125.819 70.192 125.555 71.312 125.027 72.288C124.499 73.248 123.771 74 122.843 74.544C121.915 75.088 120.835 75.36 119.603 75.36ZM119.603 72.864C120.307 72.864 120.915 72.704 121.427 72.384C121.939 72.064 122.339 71.608 122.627 71.016C122.915 70.424 123.059 69.736 123.059 68.952C123.059 68.136 122.915 67.44 122.627 66.864C122.339 66.272 121.939 65.816 121.427 65.496C120.915 65.176 120.307 65.016 119.603 65.016C118.915 65.016 118.315 65.176 117.803 65.496C117.291 65.816 116.891 66.272 116.603 66.864C116.315 67.44 116.171 68.128 116.171 68.928C116.171 69.728 116.315 70.424 116.603 71.016C116.891 71.608 117.291 72.064 117.803 72.384C118.315 72.704 118.915 72.864 119.603 72.864Z" fill="url(#paint0_linear_1_249)"/>
<defs>
<linearGradient id="paint0_linear_1_249" x1="63.5" y1="51" x2="63.5" y2="85" gradientUnits="userSpaceOnUse">
<stop stop-color="white"/>
<stop offset="1" stop-color="#646381"/>
</linearGradient>
</defs>
</svg>
