<svg width="50" height="49" viewBox="0 0 50 49" fill="none" xmlns="http://www.w3.org/2000/svg">
<rect y="23.15" width="1.79393" height="6.23483" fill="#D9D9D9"/>
<rect x="5.849" y="17.8059" width="1.79393" height="17.8138" fill="#D9D9D9"/>
<rect width="1.79393" height="33.8458" transform="matrix(0.999976 -0.00700484 0.0116986 0.999932 11.6979 8.892)" fill="#D9D9D9"/>
<rect width="1.79393" height="25.2454" transform="matrix(0.999976 -0.00700484 0.0116986 0.999932 16.9646 12.9711)" fill="#D9D9D9"/>
<rect width="1.79393" height="48.8807" transform="matrix(0.999976 -0.00700484 0.0116986 0.999932 22.1306 0.0125427)" fill="#D9D9D9"/>
<rect width="1.79393" height="41.489" transform="matrix(0.999976 -0.00700484 0.0116986 0.999932 27.5731 2.75616)" fill="#D9D9D9"/>
<rect width="1.79393" height="26.459" transform="matrix(0.999976 -0.00700484 0.0116986 0.999932 32.9291 12.511)" fill="#D9D9D9"/>
<rect width="1.79393" height="16.1871" transform="matrix(0.999976 -0.00700484 0.0116986 0.999932 38.1094 17.508)" fill="#D9D9D9"/>
<rect width="1.79393" height="9.96358" transform="matrix(0.999976 -0.00700484 0.0116986 0.999932 43.1694 20.7408)" fill="#D9D9D9"/>
<rect width="1.79393" height="4.23146" transform="matrix(0.999976 -0.00700484 0.0116986 0.999932 48.1566 24.2122)" fill="#D9D9D9"/>
</svg>
